<?xml version="1.0" encoding="UTF-8"?>
<!DOCTYPE svg PUBLIC "-//W3C//DTD SVG 1.1//EN" "http://www.w3.org/Graphics/SVG/1.1/DTD/svg11.dtd">
<svg version="1.1" xmlns="http://www.w3.org/2000/svg" xmlns:xlink="http://www.w3.org/1999/xlink" x="0" y="0" width="566.6" height="104.64" viewBox="0, 0, 566.6, 104.64">
  <g id="Layer_1" transform="translate(-171.459, -115.808)">
    <g>
      <path d="M265.059,149.408 L263.459,154.368 L260.579,156.928 L260.579,159.008 Q259.299,159.328 257.379,160.128 L256.899,160.288 Q256.099,162.368 254.339,162.528 Q252.419,164.608 247.459,165.728 Q245.059,168.448 242.339,168.608 L240.099,169.728 L236.899,169.728 L235.139,170.848 L234.339,171.008 Q233.699,171.648 232.419,172.128 L230.659,173.408 L226.979,173.408 L225.059,175.008 L218.179,176.448 Q217.059,176.448 214.339,176.768 L210.979,179.328 Q209.539,178.688 208.099,178.688 L207.139,178.688 L206.019,179.328 L203.939,179.808 L202.499,180.768 L201.379,181.088 L202.979,183.808 L202.019,187.808 L203.459,193.088 L203.299,196.768 L203.939,198.208 Q207.299,198.688 207.299,202.528 Q207.299,206.208 201.379,208.128 L196.899,209.568 L191.939,203.648 L189.859,197.088 L189.859,191.008 L187.619,187.008 L189.219,185.248 L188.739,183.328 L188.899,182.048 Q184.579,181.728 182.499,181.248 L177.059,173.568 L189.059,172.768 L189.059,171.168 L189.859,169.248 L190.499,162.528 L191.299,161.568 L191.139,155.488 L191.619,152.928 L191.939,144.288 L193.699,140.608 L194.019,140.288 L193.859,139.808 Q194.499,137.728 196.419,136.608 L199.939,136.448 L201.059,136.448 Q207.939,136.448 207.939,141.568 Q207.939,143.648 205.699,147.328 L205.699,148.128 Q205.699,150.528 207.939,153.088 L205.539,153.728 L205.379,157.728 L203.459,159.328 L204.099,161.568 L202.819,163.968 L203.459,167.008 L202.819,168.448 L202.979,169.888 L204.099,169.248 L207.299,169.248 Q209.539,167.488 212.579,167.328 L214.819,165.408 Q215.939,166.528 216.899,166.848 Q218.659,166.048 222.979,164.288 L225.059,163.968 L227.619,162.368 L228.899,162.368 L229.059,162.048 L230.179,162.048 Q233.379,162.048 235.939,159.808 L239.459,160.128 L239.619,159.328 L241.859,158.368 L242.979,156.928 Q243.619,157.088 244.579,157.088 L246.019,154.368 Q246.819,153.728 247.299,153.728 Q247.779,153.728 247.939,154.368 Q248.419,153.568 250.179,152.928 L250.339,152.128 L251.459,151.328 L251.619,150.048 L250.819,147.968 L249.539,146.528 L248.259,146.208 L245.219,143.648 L239.299,141.408 Q235.299,139.008 231.939,137.728 L229.379,139.168 L224.899,136.448 L221.219,136.768 L218.819,135.328 L216.259,135.328 L214.019,134.048 Q213.859,134.048 213.379,134.048 Q212.899,134.208 212.579,134.208 Q210.659,134.208 208.579,132.928 L204.739,132.448 L201.859,132.768 L198.819,131.808 L195.459,132.608 L194.979,132.288 L192.579,133.568 L190.659,132.448 L190.659,133.248 L186.819,133.248 L183.939,134.848 L180.579,135.328 L176.259,137.408 L173.379,133.408 Q171.459,130.688 171.459,127.008 L173.219,125.088 Q173.859,122.368 176.739,121.648 Q179.619,120.928 182.659,120.128 Q183.299,120.128 183.939,120.128 Q184.579,120.288 184.579,120.288 L185.699,120.448 L185.219,120.928 L188.579,119.968 L189.059,120.288 Q189.539,120.128 190.499,120.128 Q191.939,120.128 193.539,120.928 L199.939,120.928 L204.739,121.248 L213.539,122.528 L215.939,124.288 L218.179,123.648 L222.339,124.768 L227.139,124.928 L227.779,125.728 L231.139,125.728 L234.819,127.968 L238.339,128.288 L239.139,129.408 Q242.019,129.408 244.899,131.488 L248.099,130.848 L249.379,134.048 L251.139,135.328 L253.859,135.328 L255.939,138.368 L262.019,141.888 L262.019,144.288 z" fill="#000000"/>
      <path d="M334.819,140.448 L333.219,142.528 L334.499,146.368 L332.419,148.768 L331.619,152.128 L331.139,152.928 L331.459,153.728 Q331.459,155.968 330.339,157.088 L330.019,157.568 L330.019,158.208 Q330.499,159.328 330.499,160.288 Q330.499,161.088 330.339,161.408 L330.499,162.048 L329.859,163.808 L330.339,165.728 L329.059,167.008 L329.539,169.248 L330.499,170.368 L329.059,171.648 L329.059,174.208 L327.939,176.768 L328.739,179.328 L327.779,180.608 L329.379,181.728 L327.139,185.408 L326.979,185.888 L328.579,186.208 L327.459,189.888 L327.459,190.528 Q327.459,191.648 327.299,192.288 L327.459,192.768 L330.019,193.088 L332.099,196.288 L330.979,198.688 L332.739,198.528 Q333.699,200.448 333.859,201.888 L331.459,204.288 Q330.339,205.408 328.259,206.528 L325.539,207.968 L324.739,207.168 L323.139,208.128 L318.179,202.368 L318.179,199.648 Q317.219,196.448 317.219,193.728 L317.219,192.768 L316.259,183.328 L317.539,176.608 L316.579,172.768 L313.859,177.248 L312.419,181.408 L311.139,182.048 L308.899,185.568 L304.899,189.248 L303.779,191.168 L300.259,194.208 L299.459,196.288 L294.339,199.488 L288.899,205.568 L285.859,206.208 L283.779,207.808 Q279.779,207.648 277.699,204.768 Q270.499,201.248 270.179,194.688 L270.979,194.208 L270.819,193.248 L270.659,191.328 L269.699,189.248 L270.659,187.008 L270.979,183.648 L272.099,178.368 Q272.099,178.208 272.099,177.728 Q271.939,177.408 271.939,177.088 Q271.939,176.448 272.259,175.488 Q272.099,175.168 272.099,174.208 Q272.099,173.088 273.059,170.528 L274.179,170.048 Q273.219,169.248 273.219,168.288 Q273.219,167.648 273.379,167.328 Q273.219,166.848 273.219,166.208 Q273.219,164.288 275.139,163.328 Q275.619,161.728 276.899,160.128 L276.099,158.848 L278.019,156.448 L278.019,155.808 Q278.019,152.768 280.099,150.208 L279.939,147.328 L280.579,146.688 Q280.579,146.528 280.579,146.208 Q280.419,145.888 280.419,145.728 Q280.419,144.768 281.059,144.128 L281.059,143.168 Q281.699,141.568 284.419,138.368 Q287.139,135.168 288.419,132.768 L289.219,133.568 L290.979,132.768 L291.779,132.448 L297.059,130.048 L309.379,130.688 L309.379,131.808 L313.219,132.608 Q316.899,132.608 318.019,135.008 Q318.019,134.528 318.179,133.888 Q318.179,133.408 318.179,133.248 L321.539,136.288 L324.579,136.928 L330.339,135.488 L332.419,139.488 z M319.619,148.768 L318.979,147.648 L317.699,147.328 L312.739,143.328 L309.539,142.848 L306.979,142.848 L306.659,142.528 L305.379,143.008 L303.939,142.208 L299.779,142.208 L300.259,142.848 L296.579,144.128 L295.939,144.928 L295.459,145.088 Q292.579,147.488 291.459,149.088 L290.339,152.928 L289.699,154.368 L291.299,156.608 L288.579,158.688 L288.899,159.328 Q287.139,162.368 287.139,165.248 L285.859,166.848 L285.859,169.728 L284.579,171.168 L284.259,172.608 L283.779,172.928 L283.779,175.168 L283.299,175.968 Q283.299,177.888 282.979,179.008 L283.299,179.808 L281.859,182.848 L282.499,183.808 L281.379,185.408 L282.499,188.448 L280.739,190.688 L281.059,193.728 L281.059,194.208 L281.699,194.528 L282.499,194.368 Q283.299,193.568 284.099,192.928 L283.779,191.648 L286.019,191.328 L286.499,190.208 L295.939,182.528 L296.899,182.208 L298.019,179.488 Q298.979,179.168 300.739,178.208 L301.699,175.648 L302.979,175.648 L302.499,172.928 L304.739,172.608 Q305.059,171.968 305.779,171.008 Q306.499,170.048 307.299,169.248 L315.459,158.368 L316.739,155.968 L316.579,155.328 L317.699,153.568 L318.019,151.808 L319.459,150.528 z" fill="#000000"/>
      <path d="M423.299,203.008 Q419.459,207.488 416.419,207.488 L416.099,207.488 L413.539,208.768 L410.659,207.328 L408.259,206.688 L404.419,203.808 L400.579,203.168 L395.779,199.008 L390.979,192.768 L386.019,187.808 L385.859,186.848 Q383.139,183.648 381.699,181.088 L381.219,179.968 L379.619,178.528 Q379.299,177.088 378.819,176.448 L378.019,177.248 L376.739,177.248 L374.979,179.968 L374.499,181.248 L372.099,182.848 L371.299,186.208 L368.579,188.288 Q368.099,190.688 366.819,192.128 L364.899,192.928 L364.739,194.368 L362.659,197.248 L359.299,199.968 L359.299,200.448 L354.179,205.728 L350.179,211.328 L348.419,214.048 L346.819,215.168 L340.739,220.448 L337.219,216.928 L338.179,213.248 L339.779,211.648 L340.099,209.888 L341.859,208.448 L342.979,205.408 Q343.139,205.568 343.539,205.568 Q343.939,205.568 344.579,205.888 L346.499,201.728 L347.779,201.088 L349.539,197.728 L350.339,194.048 L352.579,193.248 Q353.059,191.808 354.499,190.528 L354.499,190.208 Q354.499,187.968 356.899,186.368 Q358.659,186.368 358.819,183.168 L359.939,182.528 L360.419,181.248 L361.219,180.928 Q362.339,179.008 363.939,178.208 L365.379,174.848 L366.339,174.208 L366.339,171.968 L368.099,171.328 L369.859,170.048 L370.499,167.808 Q370.819,167.008 372.099,166.048 L370.979,164.608 L370.659,163.488 L370.019,163.168 L366.979,157.408 L364.259,152.768 L362.339,148.768 L358.979,145.088 L359.939,143.008 L358.979,138.688 L364.899,137.408 L370.019,138.368 L370.659,141.248 L373.859,144.608 L373.539,146.048 L374.979,149.248 L377.379,152.448 L377.699,155.648 L378.979,158.688 L380.259,157.408 L380.259,156.128 Q381.219,155.808 381.539,155.648 L382.179,155.488 Q383.299,154.368 383.779,153.248 L383.779,152.608 L385.539,151.808 L385.379,151.328 Q386.179,150.528 388.099,149.088 L388.099,147.488 L390.179,147.328 L392.099,146.048 L392.579,144.128 Q393.379,143.808 394.979,143.168 L394.979,142.688 L395.619,142.848 L396.099,144.128 Q398.019,140.128 400.099,139.168 L401.379,137.728 L404.099,137.248 L409.379,135.808 L411.619,139.488 L413.059,140.768 Q413.059,145.568 408.739,147.008 L408.259,147.168 L398.179,155.488 L396.739,157.888 L394.339,158.848 L392.419,160.928 L390.179,163.488 L386.979,164.768 L386.339,166.528 L385.379,166.528 L387.459,169.568 L388.099,172.128 L388.739,173.088 L390.339,173.888 Q390.979,175.168 391.939,177.728 L392.099,178.528 L395.939,180.928 L396.899,184.928 L399.299,186.848 L400.899,189.248 L403.459,190.848 L403.939,191.968 L405.219,192.768 L405.859,193.568 L407.619,194.048 L409.699,197.248 L411.459,196.928 L414.179,198.368 L422.979,199.328 z" fill="#000000"/>
      <path d="M532.299,139.808 L531.819,140.608 Q530.539,148.288 529.099,149.888 L528.779,150.848 L528.779,158.368 L527.179,161.568 L527.659,163.488 L526.059,169.888 L526.699,171.648 L525.579,177.248 L525.739,179.968 L524.619,183.488 L526.059,187.648 L523.339,191.328 L523.979,193.408 L522.699,195.648 L523.179,196.128 L523.659,203.488 L525.739,207.168 L523.019,209.248 L521.419,211.808 L515.499,210.208 L514.539,203.008 L513.579,202.688 Q512.939,197.088 512.939,191.168 L512.459,190.368 L509.739,189.888 L508.939,190.848 L506.539,188.128 L504.299,188.768 L500.779,186.208 Q496.939,185.888 495.179,185.568 L493.739,184.288 L493.099,184.448 L481.579,177.568 L480.619,176.448 L477.099,175.168 L475.019,172.448 L473.259,171.648 L470.699,169.408 L463.179,166.368 L458.379,160.608 L455.819,160.288 L454.219,158.048 Q450.699,155.808 447.979,152.768 L447.979,154.208 L446.699,161.088 L448.139,165.728 L445.739,173.568 L446.219,175.968 Q446.859,177.088 446.859,178.848 Q446.859,180.928 446.219,182.368 L447.659,182.688 L445.739,188.288 L445.739,191.808 L445.099,195.168 L446.219,197.248 L444.139,199.968 Q444.619,200.608 444.619,201.728 Q443.659,205.248 441.259,208.288 L438.379,208.288 Q433.419,208.288 433.259,201.408 L435.019,195.968 L434.219,193.408 L435.179,191.008 Q435.019,190.208 435.019,188.768 Q435.019,187.648 435.179,187.168 L434.059,185.728 L434.059,184.608 Q434.059,183.808 434.219,182.688 Q434.219,181.408 434.219,180.928 Q434.219,179.328 432.939,176.128 L434.219,174.208 L435.019,171.488 L434.219,167.008 L435.499,162.368 L434.539,159.328 L435.819,151.808 L435.499,146.368 L436.139,141.728 L435.499,140.288 L435.819,131.008 Q435.499,129.408 435.499,128.768 Q435.499,127.648 435.979,126.688 Q436.459,124.128 439.819,123.968 L441.259,124.288 L442.539,122.688 Q446.219,124.608 447.659,128.128 L449.099,128.128 L449.579,133.088 L451.659,134.528 L451.819,136.448 L454.219,137.888 L455.499,142.368 L456.299,143.168 L460.779,146.208 Q462.379,147.008 462.699,149.088 L463.019,149.728 L466.859,152.128 L471.179,156.448 L482.699,165.408 Q486.059,166.048 488.139,169.408 L492.939,170.848 L496.939,174.048 L498.859,174.528 L503.659,176.768 L508.299,178.208 Q510.859,180.608 513.099,181.568 L513.579,179.168 L515.179,175.968 L514.539,175.328 L515.339,166.528 L516.779,163.808 L516.779,163.328 L514.859,160.768 L516.779,154.208 L516.139,148.768 L517.579,139.168 L515.499,137.088 L517.579,130.848 L516.299,129.408 L517.899,127.328 L517.419,125.568 L525.099,121.888 L525.899,123.648 L530.699,124.448 Q529.419,127.488 529.419,129.088 Q529.419,129.888 529.579,130.368 Q530.859,132.128 531.019,133.568 L530.059,136.128 z" fill="#000000"/>
      <path d="M606.059,167.808 L605.099,170.688 Q605.099,174.848 604.619,177.248 L603.659,178.848 L603.659,180.608 L602.859,181.728 L602.379,183.968 L600.619,185.728 L599.499,189.728 L598.219,190.208 L597.579,191.968 L595.659,193.088 L594.379,195.808 L592.459,196.768 L592.299,198.688 L589.259,199.808 Q587.179,202.688 584.139,203.488 L583.499,203.648 Q581.259,207.008 577.579,207.008 Q575.979,207.968 573.899,207.968 L572.299,209.088 L570.699,209.568 L568.619,211.168 L566.539,211.008 L564.299,211.648 L561.579,210.528 L554.699,210.048 L552.299,206.368 L548.779,202.688 L549.579,200.128 L547.179,194.688 L548.299,192.608 L547.499,188.768 L548.299,186.368 Q547.979,184.128 547.979,183.168 Q547.979,180.128 549.579,178.688 Q549.739,177.088 551.659,173.408 L552.459,173.408 L552.139,172.288 L552.619,170.048 L552.619,167.648 Q553.899,166.208 554.059,165.728 L553.579,163.488 L553.579,162.848 Q554.699,160.608 554.699,158.208 L558.059,153.568 Q558.059,153.568 558.459,153.248 Q558.859,152.928 559.179,152.608 L559.019,151.968 L559.659,151.968 L562.059,149.248 L562.219,145.568 L566.219,144.128 Q568.459,142.688 569.099,139.328 L571.179,139.328 Q572.939,138.368 574.379,138.368 Q575.819,138.368 577.099,139.008 L578.859,139.168 L583.019,137.568 L585.259,139.648 L587.019,140.768 L588.299,140.768 L590.699,142.048 L591.979,142.048 Q594.059,143.968 596.779,147.328 L597.099,148.128 L598.219,148.768 L601.579,153.088 L604.619,160.608 L604.619,162.208 z M595.499,171.648 L595.339,170.848 Q594.219,169.728 594.059,168.448 L594.539,167.648 L593.099,164.608 L593.419,161.568 L592.779,160.768 Q590.699,159.168 590.539,158.208 Q589.099,157.568 589.099,155.008 L588.139,154.848 L586.219,151.648 L584.779,150.528 L581.419,149.248 L580.139,148.928 Q579.179,148.928 578.859,148.288 L575.659,151.808 L573.579,156.288 L570.219,158.048 L569.739,159.808 L568.139,160.608 L567.499,164.768 L565.579,165.728 Q564.939,167.968 564.939,169.888 L562.379,172.288 L563.179,172.768 Q563.179,174.688 561.739,176.128 Q561.259,177.568 560.459,179.328 L560.459,180.608 L559.979,181.248 L560.139,183.168 L558.379,187.488 L558.699,188.288 L558.699,192.768 L558.059,195.008 L558.219,197.248 L559.659,199.328 L561.899,200.128 L562.699,200.448 L563.979,199.808 L568.139,200.128 L568.779,198.528 L569.419,198.528 Q570.379,198.528 570.539,199.008 L571.979,198.528 L573.259,199.008 L575.339,197.568 L575.659,197.088 L577.099,196.768 Q578.219,195.008 582.379,193.248 L582.699,192.448 L585.899,190.208 L587.659,187.648 L590.219,186.368 L590.379,185.568 L591.179,183.808 L591.179,181.728 L593.099,180.128 L593.739,179.008 L594.539,178.048 Q593.899,176.128 593.899,175.328 Q593.899,173.888 594.859,172.288 z" fill="#000000"/>
      <path d="M667.499,147.808 Q667.499,149.248 664.619,150.528 Q663.979,151.328 662.219,151.968 Q659.979,152.928 659.019,153.568 L655.659,152.448 Q653.099,154.368 649.099,154.368 L647.179,153.888 L645.739,155.168 L641.419,155.168 L638.699,156.928 Q636.939,156.288 635.339,156.288 Q634.859,156.608 633.099,156.928 Q632.299,156.928 631.339,156.448 L630.859,162.528 L631.019,167.008 L630.539,172.608 L630.859,178.688 L631.339,181.568 L631.339,183.808 L633.579,188.608 Q633.099,189.088 633.099,189.728 Q633.099,190.848 636.619,191.488 L636.939,193.408 L638.059,193.888 L639.979,195.168 L641.259,196.128 Q642.859,195.808 643.499,195.808 Q644.939,195.808 646.379,196.288 Q647.019,195.968 649.099,194.048 Q650.539,192.768 651.819,192.768 Q651.979,192.768 652.299,192.768 Q652.619,192.928 652.779,192.928 Q654.219,189.888 657.899,188.928 Q661.259,188.928 663.499,191.008 L663.499,192.128 Q663.499,197.568 659.659,199.008 Q658.219,202.368 653.579,203.328 L651.659,205.088 L649.579,205.088 L645.899,206.048 Q644.619,206.368 642.219,206.368 Q640.939,206.368 639.499,205.728 L637.419,205.728 L631.819,202.688 L630.379,202.208 L627.019,197.728 L625.099,195.648 L621.579,187.648 L620.299,180.128 L620.619,178.208 L619.339,176.448 L620.139,174.208 L619.339,170.688 L620.459,169.568 L620.779,167.488 L620.299,165.568 L620.619,162.688 L619.979,160.128 L620.779,159.328 L620.779,156.768 L619.659,156.288 L616.619,156.928 L613.739,154.848 L613.259,154.848 Q608.459,154.848 608.459,149.728 L608.459,149.248 L606.539,146.208 L609.579,143.328 L613.579,143.968 L615.659,143.648 L618.699,144.448 L622.059,144.448 L622.059,141.248 L619.979,136.768 L622.059,135.648 L621.259,133.248 L621.419,128.288 L620.139,126.208 Q619.019,124.448 619.019,123.008 Q619.019,121.248 619.819,120.128 L620.299,117.888 L621.579,116.608 Q625.899,115.808 627.339,115.808 Q632.459,115.808 632.939,120.448 L632.459,121.248 Q633.419,122.688 633.419,123.968 Q633.419,124.128 633.259,124.768 L632.939,125.728 L632.779,126.848 L633.419,128.928 L633.259,129.728 L633.579,131.968 L632.139,133.888 L632.939,137.088 L632.299,140.928 L633.579,142.368 L632.299,145.248 L637.259,144.608 L646.059,145.408 L653.099,144.288 L655.499,144.448 L656.299,144.288 L662.539,144.288 Q667.499,144.288 667.499,147.808 z" fill="#000000"/>
      <path d="M738.059,140.448 L736.459,142.528 L737.739,146.368 L735.659,148.768 L734.859,152.128 L734.379,152.928 L734.699,153.728 Q734.699,155.968 733.579,157.088 L733.259,157.568 L733.259,158.208 Q733.739,159.328 733.739,160.288 Q733.739,161.088 733.579,161.408 L733.739,162.048 L733.099,163.808 L733.579,165.728 L732.299,167.008 L732.779,169.248 L733.739,170.368 L732.299,171.648 L732.299,174.208 L731.179,176.768 L731.979,179.328 L731.019,180.608 L732.619,181.728 L730.379,185.408 L730.219,185.888 L731.819,186.208 L730.699,189.888 L730.699,190.528 Q730.699,191.648 730.539,192.288 L730.699,192.768 L733.259,193.088 L735.339,196.288 L734.219,198.688 L735.979,198.528 Q736.939,200.448 737.099,201.888 L734.699,204.288 Q733.579,205.408 731.499,206.528 L728.779,207.968 L727.979,207.168 L726.379,208.128 L721.419,202.368 L721.419,199.648 Q720.459,196.448 720.459,193.728 L720.459,192.768 L719.499,183.328 L720.779,176.608 L719.819,172.768 L717.099,177.248 L715.659,181.408 L714.379,182.048 L712.139,185.568 L708.139,189.248 L707.019,191.168 L703.499,194.208 L702.699,196.288 L697.579,199.488 L692.139,205.568 L689.099,206.208 L687.019,207.808 Q683.019,207.648 680.939,204.768 Q673.739,201.248 673.419,194.688 L674.219,194.208 L674.059,193.248 L673.899,191.328 L672.939,189.248 L673.899,187.008 L674.219,183.648 L675.339,178.368 Q675.339,178.208 675.339,177.728 Q675.179,177.408 675.179,177.088 Q675.179,176.448 675.499,175.488 Q675.339,175.168 675.339,174.208 Q675.339,173.088 676.299,170.528 L677.419,170.048 Q676.459,169.248 676.459,168.288 Q676.459,167.648 676.619,167.328 Q676.459,166.848 676.459,166.208 Q676.459,164.288 678.379,163.328 Q678.859,161.728 680.139,160.128 L679.339,158.848 L681.259,156.448 L681.259,155.808 Q681.259,152.768 683.339,150.208 L683.179,147.328 L683.819,146.688 Q683.819,146.528 683.819,146.208 Q683.659,145.888 683.659,145.728 Q683.659,144.768 684.299,144.128 L684.299,143.168 Q684.939,141.568 687.659,138.368 Q690.379,135.168 691.659,132.768 L692.459,133.568 L694.219,132.768 L695.019,132.448 L700.299,130.048 L712.619,130.688 L712.619,131.808 L716.459,132.608 Q720.139,132.608 721.259,135.008 Q721.259,134.528 721.419,133.888 Q721.419,133.408 721.419,133.248 L724.779,136.288 L727.819,136.928 L733.579,135.488 L735.659,139.488 z M722.859,148.768 L722.219,147.648 L720.939,147.328 L715.979,143.328 L712.779,142.848 L710.219,142.848 L709.899,142.528 L708.619,143.008 L707.179,142.208 L703.019,142.208 L703.499,142.848 L699.819,144.128 L699.179,144.928 L698.699,145.088 Q695.819,147.488 694.699,149.088 L693.579,152.928 L692.939,154.368 L694.539,156.608 L691.819,158.688 L692.139,159.328 Q690.379,162.368 690.379,165.248 L689.099,166.848 L689.099,169.728 L687.819,171.168 L687.499,172.608 L687.019,172.928 L687.019,175.168 L686.539,175.968 Q686.539,177.888 686.219,179.008 L686.539,179.808 L685.099,182.848 L685.739,183.808 L684.619,185.408 L685.739,188.448 L683.979,190.688 L684.299,193.728 L684.299,194.208 L684.939,194.528 L685.739,194.368 Q686.539,193.568 687.339,192.928 L687.019,191.648 L689.259,191.328 L689.739,190.208 L699.179,182.528 L700.139,182.208 L701.259,179.488 Q702.219,179.168 703.979,178.208 L704.939,175.648 L706.219,175.648 L705.739,172.928 L707.979,172.608 Q708.299,171.968 709.019,171.008 Q709.739,170.048 710.539,169.248 L718.699,158.368 L719.979,155.968 L719.819,155.328 L720.939,153.568 L721.259,151.808 L722.699,150.528 z" fill="#000000"/>
    </g>
  </g>
</svg>
