<?xml version="1.0" encoding="UTF-8"?>
<!DOCTYPE svg PUBLIC "-//W3C//DTD SVG 1.1//EN" "http://www.w3.org/Graphics/SVG/1.1/DTD/svg11.dtd">
<svg version="1.1" xmlns="http://www.w3.org/2000/svg" xmlns:xlink="http://www.w3.org/1999/xlink" x="0" y="0" width="1024" height="600" viewBox="0, 0, 1024, 600">
  <g id="Background">
    <rect x="0" y="0" width="1024" height="600" fill="#000000" fill-opacity="0"/>
  </g>
  <g id="Layer_5">
    <g id="logo">
      <path d="M362.043,357.478 L355.95,357.658 L288.926,146.432 L207.415,315.684 L125.948,146.432 L59.015,357.478 L52.786,357.478 L15.19,357.478 L121.751,21.051 L207.415,236.294 L293.124,21.051 L399.685,357.478 L362.043,357.478 z" fill="#368FC0"/>
      <path d="M15.19,365.828 L59.015,365.828 L207.415,498.792 L355.95,365.828 L399.685,365.828 L207.415,578.949 L15.19,365.828 z" fill="#368FC0"/>
    </g>
  </g>
  <g id="black">
    <g id="movosoft">
      <path d="M571.057,357.658 L533.777,357.658 L533.777,287.746 L500.152,328.367 L496.993,328.367 L463.278,287.746 L463.278,357.658 L427.171,357.658 L427.171,236.971 L460.886,236.971 L498.889,282.104 L537.072,236.971 L570.877,236.971 z" fill="#000000"/>
      <path d="M864.833,404.598 L800.743,404.823 C798.723,404.81 796.739,405.356 795.011,406.403 C793.689,407.174 792.561,408.24 791.717,409.517 C789.852,412.449 788.938,415.885 789.099,419.356 L789.099,425.449 L836.85,425.449 L836.85,452.53 L789.234,452.53 L789.234,500.913 L751.547,500.913 L751.547,418.183 C752.136,411.578 753.656,405.09 756.061,398.911 C758.419,394.373 761.568,390.292 765.358,386.86 C771.18,381.472 778.697,378.28 786.616,377.833 L793.838,377.833 L865.014,377.517 z" fill="#000000"/>
      <path d="M968.099,404.733 L968.099,500.733 L936.1,500.733 L936.1,404.733 L894.983,404.733 L894.983,377.653 L1008.81,377.427 L1008.81,404.507 z" fill="#000000"/>
      <path d="M642.053,237.287 L680.011,237.287 C689.499,237.036 698.822,239.802 706.64,245.185 C713.334,249.129 717.528,256.239 717.742,264.006 L717.742,330.939 C717.471,338.677 713.289,345.749 706.64,349.715 C698.832,355.123 689.505,357.905 680.011,357.658 L642.053,357.658 C632.572,357.904 623.255,355.156 615.424,349.805 C608.713,345.872 604.5,338.76 604.276,330.984 L604.276,264.006 C604.5,256.23 608.713,249.118 615.424,245.185 C623.25,239.818 632.567,237.055 642.053,237.287 z M679.65,261.749 Q675.768,250.736 661.009,250.736 C656.192,250.566 651.447,251.942 647.469,254.663 C644.111,256.62 641.997,260.167 641.873,264.051 L641.873,309.501 z M642.504,333.015 C643.302,336.529 645.504,339.563 648.597,341.41 C652.415,343.47 656.721,344.453 661.054,344.254 C665.871,344.424 670.616,343.048 674.595,340.327 C677.909,338.356 679.999,334.838 680.146,330.984 L680.146,285.49 z" fill="#000000"/>
      <path d="M872.416,236.926 L818.797,357.342 L795.102,357.342 L742.521,236.926 L779.846,236.926 L806.927,305.574 L834.91,236.926 z" fill="#000000"/>
      <path d="M722.03,439.486 C722.03,473.536 694.427,501.139 660.377,501.139 C626.327,501.139 598.724,473.536 598.724,439.486 C598.724,405.436 626.327,377.833 660.377,377.833 C694.427,377.833 722.03,405.436 722.03,439.486 z" fill="#000000"/>
      <path d="M932.805,237.151 L970.898,237.151 C980.386,236.901 989.709,239.666 997.527,245.05 C1004.12,248.973 1008.268,255.977 1008.539,263.645 L1008.539,330.804 C1008.198,338.486 1004.006,345.478 997.391,349.399 C989.583,354.807 980.257,357.589 970.762,357.342 L932.805,357.342 C923.324,357.588 914.007,354.84 906.176,349.489 C899.464,345.556 895.252,338.444 895.028,330.668 L895.028,263.645 C895.252,255.869 899.464,248.757 906.176,244.824 C914.028,239.537 923.344,236.853 932.805,237.151 z M970.401,261.614 Q966.52,250.601 951.761,250.601 C946.944,250.43 942.199,251.806 938.221,254.528 C935.011,256.476 932.981,259.894 932.805,263.645 L932.805,309.365 z M933.256,332.88 C934.043,336.386 936.228,339.418 939.304,341.275 C943.122,343.335 947.428,344.318 951.761,344.118 C956.578,344.289 961.323,342.913 965.301,340.192 C968.646,338.222 970.756,334.683 970.898,330.804 L970.898,285.354 z" fill="#000000"/>
      <path d="M549.484,409.923 C548.265,409.337 536.395,405.861 531.43,404.733 C525.871,403.487 520.252,402.523 514.595,401.844 C508.607,401.084 502.578,400.692 496.542,400.671 C488.751,400.136 480.939,401.323 473.659,404.146 Q467.114,407.622 467.114,411.548 C467.177,414.29 469,416.678 471.628,417.461 C475.417,418.967 479.396,419.939 483.453,420.349 Q490.765,421.252 500.062,421.839 Q509.36,422.425 519.154,423.554 C525.583,424.312 531.971,425.397 538.29,426.803 C544.091,428.046 549.685,430.113 554.9,432.942 C559.624,435.513 563.675,439.162 566.725,443.593 C569.888,448.506 571.464,454.273 571.238,460.112 C571.218,465.309 570.063,470.438 567.853,475.142 C565.221,480.494 561.238,485.068 556.299,488.411 C549.646,492.858 542.223,496.026 534.409,497.754 C523.232,500.285 511.79,501.452 500.333,501.229 C491.287,501.294 482.244,500.827 473.253,499.83 C466.655,498.993 460.113,497.757 453.665,496.129 C449.045,494.966 444.518,493.457 440.124,491.616 C437.1,490.352 428.029,485.748 428.029,485.748 L442.832,461.556 C449.412,464.592 456.218,467.112 463.188,469.094 C468.243,470.448 473.794,472.208 480.158,473.382 C486.548,474.532 493.028,475.106 499.521,475.097 C508.918,475.535 518.312,474.156 527.188,471.035 C533.055,468.507 538.02,464.716 536.214,459.345 C534.886,456.153 531.967,453.903 528.542,453.432 C522.217,451.992 515.787,451.057 509.315,450.634 L484.401,448.332 C475.973,447.609 467.632,446.098 459.487,443.819 C452.477,441.946 445.931,438.642 440.26,434.115 C435.11,429.814 432.27,423.35 432.587,416.648 C432.556,411.018 434.12,405.494 437.1,400.716 C440.224,395.755 444.438,391.572 449.422,388.485 C455.365,384.815 461.855,382.118 468.649,380.496 C476.876,378.49 485.321,377.52 493.789,377.608 C501.771,377.569 509.748,378.067 517.664,379.097 Q528.722,380.586 537.297,382.437 Q545.873,384.287 551.65,385.777 C555.486,386.77 558.014,387.266 559.548,387.853" fill="#000000"/>
    </g>
  </g>
  <g id="white" display="none">
    <g id="movosoft">
      <path d="M571.057,357.658 L533.777,357.658 L533.777,287.746 L500.152,328.367 L496.993,328.367 L463.278,287.746 L463.278,357.658 L427.171,357.658 L427.171,236.971 L460.886,236.971 L498.889,282.104 L537.072,236.971 L570.877,236.971 z" fill="#FFFFFF"/>
      <path d="M864.833,404.598 L800.743,404.823 C798.723,404.81 796.739,405.356 795.011,406.403 C793.689,407.174 792.561,408.24 791.717,409.517 C789.852,412.449 788.938,415.885 789.099,419.356 L789.099,425.449 L836.85,425.449 L836.85,452.53 L789.234,452.53 L789.234,500.913 L751.547,500.913 L751.547,418.183 C752.136,411.578 753.656,405.09 756.061,398.911 C758.419,394.373 761.568,390.292 765.358,386.86 C771.18,381.472 778.697,378.28 786.616,377.833 L793.838,377.833 L865.014,377.517 z" fill="#FFFFFF"/>
      <path d="M968.099,404.733 L968.099,500.733 L936.1,500.733 L936.1,404.733 L894.983,404.733 L894.983,377.653 L1008.81,377.427 L1008.81,404.507 z" fill="#FFFFFF"/>
      <path d="M642.053,237.287 L680.011,237.287 C689.499,237.036 698.822,239.802 706.64,245.185 C713.334,249.129 717.528,256.239 717.742,264.006 L717.742,330.939 C717.471,338.677 713.289,345.749 706.64,349.715 C698.832,355.123 689.505,357.905 680.011,357.658 L642.053,357.658 C632.572,357.904 623.255,355.156 615.424,349.805 C608.713,345.872 604.5,338.76 604.276,330.984 L604.276,264.006 C604.5,256.23 608.713,249.118 615.424,245.185 C623.25,239.818 632.567,237.055 642.053,237.287 z M679.65,261.749 Q675.768,250.736 661.009,250.736 C656.192,250.566 651.447,251.942 647.469,254.663 C644.111,256.62 641.997,260.167 641.873,264.051 L641.873,309.501 z M642.504,333.015 C643.302,336.529 645.504,339.563 648.597,341.41 C652.415,343.47 656.721,344.453 661.054,344.254 C665.871,344.424 670.616,343.048 674.595,340.327 C677.909,338.356 679.999,334.838 680.146,330.984 L680.146,285.49 z" fill="#FFFFFF"/>
      <path d="M872.416,236.926 L818.797,357.342 L795.102,357.342 L742.521,236.926 L779.846,236.926 L806.927,305.574 L834.91,236.926 z" fill="#FFFFFF"/>
      <path d="M722.03,439.486 C722.03,473.536 694.427,501.139 660.377,501.139 C626.327,501.139 598.724,473.536 598.724,439.486 C598.724,405.436 626.327,377.833 660.377,377.833 C694.427,377.833 722.03,405.436 722.03,439.486 z" fill="#FFFFFF"/>
      <path d="M932.805,237.151 L970.898,237.151 C980.386,236.901 989.709,239.666 997.527,245.05 C1004.12,248.973 1008.268,255.977 1008.539,263.645 L1008.539,330.804 C1008.198,338.486 1004.006,345.478 997.391,349.399 C989.583,354.807 980.257,357.589 970.762,357.342 L932.805,357.342 C923.324,357.588 914.007,354.84 906.176,349.489 C899.464,345.556 895.252,338.444 895.028,330.668 L895.028,263.645 C895.252,255.869 899.464,248.757 906.176,244.824 C914.028,239.537 923.344,236.853 932.805,237.151 z M970.401,261.614 Q966.52,250.601 951.761,250.601 C946.944,250.43 942.199,251.806 938.221,254.528 C935.011,256.476 932.981,259.894 932.805,263.645 L932.805,309.365 z M933.256,332.88 C934.043,336.386 936.228,339.418 939.304,341.275 C943.122,343.335 947.428,344.318 951.761,344.118 C956.578,344.289 961.323,342.913 965.301,340.192 C968.646,338.222 970.756,334.683 970.898,330.804 L970.898,285.354 z" fill="#FFFFFF"/>
      <path d="M549.484,409.923 C548.265,409.337 536.395,405.861 531.43,404.733 C525.871,403.487 520.252,402.523 514.595,401.844 C508.607,401.084 502.578,400.692 496.542,400.671 C488.751,400.136 480.939,401.323 473.659,404.146 Q467.114,407.622 467.114,411.548 C467.177,414.29 469,416.678 471.628,417.461 C475.417,418.967 479.396,419.939 483.453,420.349 Q490.765,421.252 500.062,421.839 Q509.36,422.425 519.154,423.554 C525.583,424.312 531.971,425.397 538.29,426.803 C544.091,428.046 549.685,430.113 554.9,432.942 C559.624,435.513 563.675,439.162 566.725,443.593 C569.888,448.506 571.464,454.273 571.238,460.112 C571.218,465.309 570.063,470.438 567.853,475.142 C565.221,480.494 561.238,485.068 556.299,488.411 C549.646,492.858 542.223,496.026 534.409,497.754 C523.232,500.285 511.79,501.452 500.333,501.229 C491.287,501.294 482.244,500.827 473.253,499.83 C466.655,498.993 460.113,497.757 453.665,496.129 C449.045,494.966 444.518,493.457 440.124,491.616 C437.1,490.352 428.029,485.748 428.029,485.748 L442.832,461.556 C449.412,464.592 456.218,467.112 463.188,469.094 C468.243,470.448 473.794,472.208 480.158,473.382 C486.548,474.532 493.028,475.106 499.521,475.097 C508.918,475.535 518.312,474.156 527.188,471.035 C533.055,468.507 538.02,464.716 536.214,459.345 C534.886,456.153 531.967,453.903 528.542,453.432 C522.217,451.992 515.787,451.057 509.315,450.634 L484.401,448.332 C475.973,447.609 467.632,446.098 459.487,443.819 C452.477,441.946 445.931,438.642 440.26,434.115 C435.11,429.814 432.27,423.35 432.587,416.648 C432.556,411.018 434.12,405.494 437.1,400.716 C440.224,395.755 444.438,391.572 449.422,388.485 C455.365,384.815 461.855,382.118 468.649,380.496 C476.876,378.49 485.321,377.52 493.789,377.608 C501.771,377.569 509.748,378.067 517.664,379.097 Q528.722,380.586 537.297,382.437 Q545.873,384.287 551.65,385.777 C555.486,386.77 558.014,387.266 559.548,387.853" fill="#FFFFFF"/>
    </g>
  </g>
</svg>
